<?xml version="1.0" encoding="UTF-8" standalone="no"?>
<svg
   xmlns:dc="http://purl.org/dc/elements/1.1/"
   xmlns:cc="http://creativecommons.org/ns#"
   xmlns:rdf="http://www.w3.org/1999/02/22-rdf-syntax-ns#"
   xmlns:svg="http://www.w3.org/2000/svg"
   xmlns="http://www.w3.org/2000/svg"
   xmlns:xlink="http://www.w3.org/1999/xlink"
   xmlns:sodipodi="http://sodipodi.sourceforge.net/DTD/sodipodi-0.dtd"
   xmlns:inkscape="http://www.inkscape.org/namespaces/inkscape"
   inkscape:version="1.0 (4035a4fb49, 2020-05-01)"
   sodipodi:docname="icon.svg"
   id="svg8"
   version="1.1"
   viewBox="0 0 679.30695 679.30695"
   height="679.30695mm"
   width="679.30695mm">
  <defs
     id="defs2">
    <linearGradient
       xlink:href="#linearGradient3255"
       id="linearGradient5199"
       x1="53.238865"
       y1="12.753036"
       x2="53.238865"
       y2="86.356995"
       gradientUnits="userSpaceOnUse"
       gradientTransform="matrix(5.1626729,0,0,5.1626729,-789.30927,-81.384247)" />
    <linearGradient
       id="linearGradient3255">
      <stop
         style="stop-color:#226e23;stop-opacity:1;"
         offset="0"
         id="stop3257" />
      <stop
         id="stop3267"
         offset="1"
         style="stop-color:#63ab3a;stop-opacity:1;" />
    </linearGradient>
    <linearGradient
       gradientUnits="userSpaceOnUse"
       y2="125.25097"
       x2="445.78104"
       y1="125.25097"
       x1="-153.14935"
       id="linearGradient878"
       xlink:href="#linearGradient3255"
       inkscape:collect="always" />
    <linearGradient
       gradientTransform="matrix(-1.1796043,0,0,1.1796043,-396.322,94.065255)"
       gradientUnits="userSpaceOnUse"
       y2="147.62277"
       x2="-498.73279"
       y1="-192.93376"
       x1="-499.99875"
       id="linearGradient961"
       xlink:href="#linearGradient3255"
       inkscape:collect="always" />
  </defs>
  <sodipodi:namedview
     inkscape:window-maximized="1"
     inkscape:window-y="0"
     inkscape:window-x="0"
     inkscape:window-height="1023"
     inkscape:window-width="1920"
     fit-margin-bottom="0"
     fit-margin-right="0"
     fit-margin-left="0"
     fit-margin-top="0"
     inkscape:pagecheckerboard="true"
     showgrid="false"
     inkscape:document-rotation="0"
     inkscape:current-layer="layer1"
     inkscape:document-units="mm"
     inkscape:cy="1805.5623"
     inkscape:cx="-1045.6026"
     inkscape:zoom="0.0875"
     inkscape:pageshadow="2"
     inkscape:pageopacity="0.0"
     borderopacity="1.0"
     bordercolor="#666666"
     pagecolor="#ffffff"
     id="base" />
  <metadata
     id="metadata5">
    <rdf:RDF>
      <cc:Work
         rdf:about="">
        <dc:format>image/svg+xml</dc:format>
        <dc:type
           rdf:resource="http://purl.org/dc/dcmitype/StillImage" />
        <dc:title></dc:title>
      </cc:Work>
    </rdf:RDF>
  </metadata>
  <g
     transform="translate(197.56827,192.44024)"
     id="layer1"
     inkscape:groupmode="layer"
     inkscape:label="Layer 1">
    <circle
       inkscape:export-ydpi="38.290001"
       inkscape:export-xdpi="38.290001"
       r="326.73886"
       cy="147.21323"
       cx="142.08519"
       id="path943"
       style="fill:#ffffff;fill-opacity:1;stroke:#515151;stroke-width:25.8292;stroke-miterlimit:4;stroke-dasharray:none;stroke-opacity:1" />
    <path
       inkscape:export-ydpi="38.290001"
       inkscape:export-xdpi="38.290001"
       id="path26"
       d="m 106.70932,441.75296 c -1.66773,-0.59524 -2.36445,-1.17261 -2.98859,-2.47658 -0.35963,-0.75142 -4.032421,-17.83013 -9.638001,-44.8174 -4.98131,-23.98184 -9.11852,-43.8071 -9.19381,-44.05614 -0.0918,-0.30361 -1.22733,-0.75943 -3.44704,-1.38365 -13.56882,-3.81578 -30.26334,-10.74058 -42.82124,-17.76208 -1.70744,-0.95467 -3.304,-1.68413 -3.5479,-1.621 -0.24389,0.0631 -17.89689,10.71584 -39.2288791,23.67272 -21.3319899,12.95688 -39.0967399,23.72434 -39.4772199,23.9277 -1.18519,0.63345 -3.47582,0.4653 -4.85908,-0.35672 -1.84732,-1.09782 -43.00369,-42.42548 -43.5433,-43.72455 -0.61457,-1.47953 -0.54171,-3.0254 0.21101,-4.47678 0.35577,-0.686 11.78935,-18.22837 25.40795,-38.98302 l 24.7611,-37.73576 -2.68872,-5.02957 C -52.01438,232.58254 -58.16845,216.46909 -62.536,199.2983 l -0.28817,-1.1329 -43.25759,-10.55364 c -23.79168,-5.80452 -43.7021,-10.77395 -44.24538,-11.04319 -1.22868,-0.60892 -1.83126,-1.26419 -2.38813,-2.59698 -0.38152,-0.9131 -0.43409,-4.71636 -0.43409,-31.40089 0,-27.38163 0.0447,-30.45065 0.45555,-31.2652 0.66088,-1.31027 1.76803,-2.40104 2.766,-2.72503 0.47887,-0.15547 20.74617,-4.40949 45.03845,-9.453373 24.29228,-5.04387 44.33048,-9.26936 44.52935,-9.38998 0.19886,-0.1206 1.23122,-2.82276 2.29414,-6.00482 4.69753,-14.063076 10.11793,-26.034406 17.95638,-39.657866 l 0.49039,-0.85234 -24.07111,-39.6465497 c -13.23911,-21.8056193 -24.30263,-40.1545803 -24.5856,-40.7754703 -0.58051,-1.27375 -0.66985,-2.82561 -0.23047,-4.00329 0.39798,-1.0667 43.0366,-43.77302 44.21508,-44.28529 1.21574,-0.52845 3.29166,-0.49955 4.3755,0.0609 0.48465,0.25063 18.59774,12.07462 40.25130992,26.27554 l 39.37011908,25.819861 6.93635,-3.399471 c 7.42693,-3.63991 13.34171,-6.20859 19.5644,-8.49647 2.13355,-0.78443 3.9433,-1.42624 4.02167,-1.42624 0.0784,0 0.13456,9.68375 0.12485,21.519441 l -0.0175,21.5194493 -4.96395,2.39889 C 22.612149,19.447451 -10.04218,58.781041 -22.6073,104.75784 c -4.18911,15.32831 -5.89412,28.10877 -5.91114,44.30889 -0.0123,11.72944 0.79951,20.89466 2.78285,31.41726 10.63727,56.43606 49.757019,103.78116 103.186679,124.88286 36.690581,14.4907 77.406951,15.59673 114.795731,3.11835 40.12342,-13.39105 74.30615,-42.10558 94.32567,-79.23634 0.97569,-1.80964 1.86946,-3.25541 1.98619,-3.21285 0.11673,0.0426 4.50746,6.36883 9.75716,14.05839 5.24973,7.68954 14.49795,21.23587 20.55162,30.10293 6.47175,9.47948 11.3153,16.30637 11.75577,16.56958 1.1426,0.68272 1.93486,0.56667 6.92471,-1.01434 2.78661,-0.88293 4.70891,-1.358 4.85358,-1.19944 0.4885,0.5354 27.78709,45.7154 28.28676,46.81547 0.60938,1.34152 0.64979,2.0701 0.20247,3.64984 -0.28434,1.0042 -3.20074,4.04091 -21.51944,22.40732 -23.83457,23.8966 -23.04212,23.21986 -26.1727,22.35033 -0.56707,-0.15751 -6.28207,-3.7301 -12.7,-7.93911 -6.4179,-4.20898 -18.59043,-12.18937 -27.05004,-17.73419 -8.45961,-5.54482 -20.63795,-13.52852 -27.063,-17.74157 -6.42504,-4.21301 -11.8018,-7.66004 -11.94838,-7.66004 -0.14656,0 -2.07614,1.01052 -4.28795,2.24561 -13.31544,7.43543 -29.41046,14.14574 -43.3429,18.07046 -1.78505,0.50284 -3.27905,0.94401 -3.31997,0.98036 -0.0409,0.0364 -4.95617,20.02652 -10.92277,44.4226 -5.9666,24.39608 -11.05693,44.70959 -11.31183,45.1411 -0.56143,0.95039 -1.96161,1.9466 -3.25893,2.31869 -0.59425,0.17043 -12.19432,0.26983 -30.59241,0.26212 -23.97645,-0.01 -29.83679,-0.0843 -30.69097,-0.38918 z"
       style="fill:url(#linearGradient878);fill-opacity:1;stroke-width:0.282222" />
    <path
       inkscape:export-ydpi="38.290001"
       inkscape:export-xdpi="38.290001"
       style="fill:url(#linearGradient961);fill-opacity:1;stroke-width:1.12962"
       d="m 161.7427,235.3098 c -1.30677,-1.52407 -2.0353,-3.51773 -2.01291,-5.57052 V 50.428315 C 147.89295,45.646125 137.03216,38.509158 127.73218,29.209182 109.55712,11.034136 99.545417,-13.155547 99.513486,-38.848579 c 0.01288,-25.685779 10.018914,-49.856333 28.204304,-68.041791 18.19423,-18.19421 42.33756,-28.16917 68.05215,-28.19392 53.09215,-0.0145 96.26369,43.145977 96.24431,96.238306 0.003,25.740915 -9.97253,49.894674 -28.15716,68.079284 -9.30241,9.302397 -20.15599,16.401805 -32.01759,21.199183 l 0.0214,58.929457 c -0.0171,2.43541 -0.98884,4.69352 -2.78926,6.38051 l -16.61425,15.488 16.61505,15.56707 c 1.74689,1.64786 2.78611,3.91234 2.76454,6.35098 0.0214,2.39305 -0.98648,4.71508 -2.74535,6.33659 l -16.66062,15.55989 16.65182,15.49518 c 1.74939,1.64855 2.75173,3.9563 2.77487,6.35017 -0.0171,2.43302 -0.79552,4.5098 -2.78688,6.38291 l -16.61662,15.52394 16.61423,15.53754 c 1.87705,1.68864 2.84122,4.15436 2.78372,6.64647 -0.10629,2.24534 -0.99768,4.28856 -2.54407,5.83497 -0.22244,0.22217 -0.45875,0.44064 -0.70675,0.64635 l -27.37916,21.90607 c -3.69348,2.96662 -9.08992,2.42029 -12.14119,-1.20291 z m 34.03445,-290.58089 c 15.13015,-0.0083 27.36719,-12.24506 27.35922,-27.359214 8.1e-4,-15.127788 -12.23385,-27.362486 -27.35448,-27.354476 -15.10936,-0.003 -27.34956,12.222701 -27.36159,27.35686 9.6e-4,15.109364 12.24904,27.347193 27.35685,27.35683 z m -10.94627,271.59831 c 1.79885,0 3.45307,-0.75639 4.62406,-1.92738 1.17096,-1.17099 1.9274,-2.82682 1.9274,-4.62406 l -0.0214,-152.587535 c -4.41392,-0.166167 -8.75601,-0.645389 -13.04458,-1.425816 l -0.0171,154.032531 c 3e-5,3.59763 2.93467,6.53226 6.53068,6.53226 z"
       id="path945" />
  </g>
</svg>
